# xmcd
#
# Track frame offsets:
#	150
#	18881
#	37770
#	54671
#	70709
#	89694
#	114936
#	137990
#	157868
#	176755
#	195327
#	213736
#	231036
#	249085
#	266656
#	284264
#	302798
#	321811
#	341324
#
# Disc length: 4794 seconds
#
# Revision: 0
# Processed by: cddbd v1.5.2PL0 Copyright (c) Steve Scherf et al.
# Submitted via: audiograbber 1.83.01
#
DISCID=0112b813
DTITLE=Various Artist - 100 R&B Classics The Anthems
DYEAR=2008
DGENRE=R&B
TTITLE0=COLOUR ME BAD - I WANNA SEX YOU UP
TTITLE1=ADINA HOWARD - FREAK LIKE ME
TTITLE2=DAMAGE - GHETTO ROMANCE
TTITLE3=PRETTY RICKY - GRIND WITH ME
TTITLE4=BRIAN McKINGHT - USED TO BE MY GIRL
TTITLE5=KARYN WHITE - SUPERWOMAN
TTITLE6=SILK - MEETING IN MY BEDROOM
TTITLE7=THE BRAXTONS - SLOW FLOW
TTITLE8=CHANGING FACES - GHETTOUT
TTITLE9=AL B SURE - OFF ON YOUR OWN GIRL
TTITLE10=NEXT - WIFEY
TTITLE11=ANOTHER LEVEL - FREAK ME
TTITLE12=EN VOGUE - WHATEVER
TTITLE13=MUSIQ SOULCHILD - MS. PHILIADELPHIA
TTITLE14=JOE - IF I WAS YOUR MAN
TTITLE15=LEELA JAMES - MUSIC
TTITLE16=MARQUES HOUSTON - BECAUSE OF YOU
TTITLE17=NICOLE - MAKE IT HOP
TTITLE18=J. KWON - TIPSY
EXTD=
EXTT0=
EXTT1=
EXTT2=
EXTT3=
EXTT4=
EXTT5=
EXTT6=
EXTT7=
EXTT8=
EXTT9=
EXTT10=
EXTT11=
EXTT12=
EXTT13=
EXTT14=
EXTT15=
EXTT16=
EXTT17=
EXTT18=
PLAYORDER=
